<svg width="62" height="18" viewBox="0 0 62 18" fill="none" xmlns="http://www.w3.org/2000/svg">
<path d="M22.078 14V4.13H23.87V8.246H28.952V4.13H30.744V14H28.952V9.744H23.87V14H22.078ZM36.3921 14.14C35.6175 14.14 34.9501 13.9953 34.3901 13.706C33.8301 13.4167 33.3961 13.006 33.0881 12.474C32.7895 11.942 32.6401 11.312 32.6401 10.584C32.6401 9.87467 32.7848 9.254 33.0741 8.722C33.3728 8.19 33.7788 7.77467 34.2921 7.476C34.8148 7.168 35.4075 7.014 36.0701 7.014C37.0408 7.014 37.8061 7.322 38.3661 7.938C38.9355 8.554 39.2201 9.394 39.2201 10.458V10.976H34.3201C34.4508 12.1987 35.1508 12.81 36.4201 12.81C36.8028 12.81 37.1855 12.754 37.5681 12.642C37.9508 12.5207 38.3008 12.334 38.6181 12.082L39.1081 13.258C38.7815 13.5287 38.3708 13.7433 37.8761 13.902C37.3815 14.0607 36.8868 14.14 36.3921 14.14ZM36.1401 8.204C35.6268 8.204 35.2115 8.36267 34.8941 8.68C34.5768 8.99733 34.3855 9.42667 34.3201 9.968H37.7641C37.7268 9.39867 37.5681 8.96467 37.2881 8.666C37.0175 8.358 36.6348 8.204 36.1401 8.204ZM43.266 14.14C42.454 14.14 41.852 13.9207 41.46 13.482C41.0773 13.034 40.886 12.3807 40.886 11.522V4.13H42.636V11.438C42.636 12.278 42.9907 12.698 43.7 12.698C43.8027 12.698 43.9053 12.6933 44.008 12.684C44.1107 12.6747 44.2087 12.656 44.302 12.628L44.274 14.014C43.938 14.098 43.602 14.14 43.266 14.14ZM45.6367 16.52V7.154H47.3447V8.246C47.5407 7.87267 47.8347 7.574 48.2267 7.35C48.6281 7.126 49.0807 7.014 49.5847 7.014C50.1821 7.014 50.7047 7.15867 51.1527 7.448C51.6101 7.73733 51.9647 8.148 52.2167 8.68C52.4687 9.20267 52.5947 9.83267 52.5947 10.57C52.5947 11.298 52.4687 11.9327 52.2167 12.474C51.9647 13.006 51.6147 13.4167 51.1667 13.706C50.7187 13.9953 50.1914 14.14 49.5847 14.14C49.0994 14.14 48.6607 14.0373 48.2687 13.832C47.8861 13.6173 47.5921 13.3327 47.3867 12.978V16.52H45.6367ZM49.0947 12.81C49.6174 12.81 50.0374 12.6233 50.3547 12.25C50.6721 11.8673 50.8307 11.3073 50.8307 10.57C50.8307 9.82333 50.6721 9.268 50.3547 8.904C50.0374 8.53067 49.6174 8.344 49.0947 8.344C48.5721 8.344 48.1521 8.53067 47.8347 8.904C47.5174 9.268 47.3587 9.82333 47.3587 10.57C47.3587 11.3073 47.5174 11.8673 47.8347 12.25C48.1521 12.6233 48.5721 12.81 49.0947 12.81Z" fill="#888FA7"/>
<path d="M9 0C4.03067 0 0 4.03067 0 9C0 13.9693 4.03067 18 9 18C13.9693 18 18 13.9693 18 9C18 4.03067 13.9693 0 9 0ZM9.97546 14.0982C9.97546 14.411 9.71779 14.6687 9.40491 14.6687H7.95092C7.63804 14.6687 7.38037 14.411 7.38037 14.0982V13.1595C7.38037 12.8466 7.63804 12.589 7.95092 12.589H9.40491C9.71779 12.589 9.97546 12.8466 9.97546 13.1595V14.0982ZM12.2761 8.50307C11.8896 9.03681 11.411 9.46012 10.8221 9.77301C10.4908 9.99387 10.2699 10.2147 10.1595 10.4724C10.0859 10.638 10.0307 10.8589 9.99387 11.1166C9.97546 11.319 9.79141 11.4663 9.58896 11.4663H7.80368C7.56442 11.4663 7.38037 11.2638 7.39877 11.0429C7.43558 10.546 7.56442 10.1595 7.76687 9.86503C8.02454 9.51534 8.48466 9.09202 9.14724 8.6319C9.49693 8.41104 9.7546 8.15337 9.95706 7.84049C10.1595 7.52761 10.2515 7.15951 10.2515 6.7362C10.2515 6.31288 10.1411 5.96319 9.90184 5.70552C9.66258 5.44785 9.34969 5.31902 8.92638 5.31902C8.57669 5.31902 8.30061 5.42945 8.06135 5.6319C7.91411 5.76074 7.82209 5.92638 7.76687 6.14724C7.69325 6.40491 7.45399 6.57055 7.17791 6.57055L5.52147 6.53374C5.31902 6.53374 5.15337 6.34969 5.17178 6.14724C5.22699 5.2638 5.57669 4.60123 6.18405 4.1227C6.88344 3.58896 7.78528 3.31288 8.92638 3.31288C10.1411 3.31288 11.0982 3.62577 11.7975 4.23313C12.4969 4.84049 12.8466 5.66871 12.8466 6.71779C12.8466 7.38037 12.6442 7.96933 12.2761 8.50307Z" fill="#888FA7"/>
</svg>
