<svg width="227" height="30" viewBox="0 0 227 30" fill="none" xmlns="http://www.w3.org/2000/svg">
<g filter="url(#filter0_d_1507_425)">
<path d="M5 18.123C5.8028 19.461 7.04045 20.4645 8.4788 20.9997C9.2816 21.3007 10.1179 21.468 10.9876 21.468C11.8573 21.468 12.727 21.3007 13.4963 20.9997C14.9012 20.4979 16.072 19.5279 16.9082 18.2568C17.6776 17.1195 18.0455 15.7815 18.0455 14.41C18.0455 12.8044 17.6107 11.2657 16.6072 9.96119C15.0685 7.88729 12.8942 7.18484 10.9207 5.64614C9.4154 4.50884 8.9471 3.13739 8.8133 1.46489H6.8732C6.97355 3.10394 7.37495 4.70954 8.4788 6.01409C11.021 9.09149 16.1054 9.35909 16.1054 14.41C16.1054 17.2533 13.8308 19.5279 10.9876 19.5279C10.6531 19.5279 10.3186 19.4944 9.9506 19.4275C8.57915 19.1265 7.4084 18.2902 6.6725 17.1529L5 18.123Z" fill="#0C1E5B"/>
<path d="M26.0327 13.6741V1.46489H24.0926V13.6741C24.0926 17.9892 27.6049 21.5014 31.9199 21.5014C36.2015 21.5014 39.7472 17.9892 39.7472 13.6741V1.46489H37.7737V13.6741C37.7737 16.9188 35.1311 19.5613 31.9199 19.5613C28.6753 19.5613 26.0327 16.9188 26.0327 13.6741Z" fill="#0C1E5B"/>
<path d="M52.2217 11.5668H45.7659V20.9997H47.706V13.5069H52.2217C55.5667 13.5069 58.2762 10.7974 58.2762 7.48589C58.2762 4.17434 55.5667 1.46489 52.2217 1.46489H45.7659V3.40499H52.2217C54.4629 3.40499 56.3026 5.24474 56.3026 7.48589C56.3026 9.72704 54.4629 11.5668 52.2217 11.5668Z" fill="#0C1E5B"/>
<path d="M64.3032 12.2023H77.5159V10.2622H64.3032V12.2023ZM64.3032 3.40499H77.5159V1.46489H64.3032V3.40499ZM77.5159 19.0596H64.3032V20.9997H77.5159V19.0596Z" fill="#0C1E5B"/>
<path d="M90.015 11.5668H83.5592V13.5069H89.0115L93.5273 20.9997H95.7684L91.2192 13.4065C93.9621 12.8379 96.0695 10.396 96.0695 7.48589C96.0695 4.17434 93.36 1.46489 90.015 1.46489H83.5592V3.40499H90.015C92.2562 3.40499 94.0959 5.24474 94.0959 7.48589C94.0959 9.72704 92.2562 11.5668 90.015 11.5668Z" fill="#0C1E5B"/>
<path d="M122.353 11.5668H115.897V20.9997H117.837V13.5069H122.353C125.698 13.5069 128.408 10.7974 128.408 7.48589C128.408 4.17434 125.698 1.46489 122.353 1.46489H115.897V3.40499H122.353C124.594 3.40499 126.434 5.24474 126.434 7.48589C126.434 9.72704 124.594 11.5668 122.353 11.5668Z" fill="#0C1E5B"/>
<path d="M136.508 21.0331L143.065 2.97014L149.621 20.9997H151.728L144.603 1.46489H141.526L134.435 20.9997L136.508 21.0331Z" fill="#0C1E5B"/>
<path d="M167.977 19.5279C163.394 19.5279 159.681 15.8149 159.681 11.1988C159.681 6.61619 163.394 2.90324 167.977 2.90324V0.929688C162.324 0.929688 157.741 5.54579 157.741 11.1988C157.741 16.8853 162.324 21.468 167.977 21.468C171.489 21.468 174.6 19.7286 176.44 17.0191V10.2622H167.977V12.2023H174.5V16.3836C172.961 18.2902 170.619 19.5279 167.977 19.5279Z" fill="#0C1E5B"/>
<path d="M192.721 19.5279C188.138 19.5279 184.425 15.8149 184.425 11.1988C184.425 6.61619 188.138 2.90324 192.721 2.90324C197.337 2.90324 201.05 6.61619 201.05 11.1988C201.05 15.8149 197.337 19.5279 192.721 19.5279ZM192.721 21.468C198.407 21.468 202.99 16.8853 202.99 11.1988C202.99 5.54579 198.407 0.929688 192.721 0.929688C187.068 0.929688 182.485 5.54579 182.485 11.1988C182.485 16.8853 187.068 21.468 192.721 21.468Z" fill="#0C1E5B"/>
<path d="M209.058 18.123C209.861 19.461 211.099 20.4645 212.537 20.9997C213.34 21.3007 214.176 21.468 215.046 21.468C215.915 21.468 216.785 21.3007 217.554 20.9997C218.959 20.4979 220.13 19.5279 220.966 18.2568C221.736 17.1195 222.104 15.7815 222.104 14.41C222.104 12.8044 221.669 11.2657 220.665 9.96119C219.127 7.88729 216.952 7.18484 214.979 5.64614C213.473 4.50884 213.005 3.13739 212.871 1.46489H210.931C211.032 3.10394 211.433 4.70954 212.537 6.01409C215.079 9.09149 220.163 9.35909 220.163 14.41C220.163 17.2533 217.889 19.5279 215.046 19.5279C214.711 19.5279 214.377 19.4944 214.009 19.4275C212.637 19.1265 211.466 18.2902 210.731 17.1529L209.058 18.123Z" fill="#0C1E5B"/>
<path d="M5 18.123C5.8028 19.461 7.04045 20.4645 8.4788 20.9997C9.2816 21.3007 10.1179 21.468 10.9876 21.468C11.8573 21.468 12.727 21.3007 13.4963 20.9997C14.9012 20.4979 16.072 19.5279 16.9082 18.2568C17.6776 17.1195 18.0455 15.7815 18.0455 14.41C18.0455 12.8044 17.6107 11.2657 16.6072 9.96119C15.0685 7.88729 12.8942 7.18484 10.9207 5.64614C9.4154 4.50884 8.9471 3.13739 8.8133 1.46489H6.8732C6.97355 3.10394 7.37495 4.70954 8.4788 6.01409C11.021 9.09149 16.1054 9.35909 16.1054 14.41C16.1054 17.2533 13.8308 19.5279 10.9876 19.5279C10.6531 19.5279 10.3186 19.4944 9.9506 19.4275C8.57915 19.1265 7.4084 18.2902 6.6725 17.1529L5 18.123Z" stroke="#0C1E5B" stroke-width="0.5"/>
<path d="M26.0327 13.6741V1.46489H24.0926V13.6741C24.0926 17.9892 27.6049 21.5014 31.9199 21.5014C36.2015 21.5014 39.7472 17.9892 39.7472 13.6741V1.46489H37.7737V13.6741C37.7737 16.9188 35.1311 19.5613 31.9199 19.5613C28.6753 19.5613 26.0327 16.9188 26.0327 13.6741Z" stroke="#0C1E5B" stroke-width="0.5"/>
<path d="M52.2217 11.5668H45.7659V20.9997H47.706V13.5069H52.2217C55.5667 13.5069 58.2762 10.7974 58.2762 7.48589C58.2762 4.17434 55.5667 1.46489 52.2217 1.46489H45.7659V3.40499H52.2217C54.4629 3.40499 56.3026 5.24474 56.3026 7.48589C56.3026 9.72704 54.4629 11.5668 52.2217 11.5668Z" stroke="#0C1E5B" stroke-width="0.5"/>
<path d="M64.3032 12.2023H77.5159V10.2622H64.3032V12.2023ZM64.3032 3.40499H77.5159V1.46489H64.3032V3.40499ZM77.5159 19.0596H64.3032V20.9997H77.5159V19.0596Z" stroke="#0C1E5B" stroke-width="0.5"/>
<path d="M90.015 11.5668H83.5592V13.5069H89.0115L93.5273 20.9997H95.7684L91.2192 13.4065C93.9621 12.8379 96.0695 10.396 96.0695 7.48589C96.0695 4.17434 93.36 1.46489 90.015 1.46489H83.5592V3.40499H90.015C92.2562 3.40499 94.0959 5.24474 94.0959 7.48589C94.0959 9.72704 92.2562 11.5668 90.015 11.5668Z" stroke="#0C1E5B" stroke-width="0.5"/>
<path d="M122.353 11.5668H115.897V20.9997H117.837V13.5069H122.353C125.698 13.5069 128.408 10.7974 128.408 7.48589C128.408 4.17434 125.698 1.46489 122.353 1.46489H115.897V3.40499H122.353C124.594 3.40499 126.434 5.24474 126.434 7.48589C126.434 9.72704 124.594 11.5668 122.353 11.5668Z" stroke="#0C1E5B" stroke-width="0.5"/>
<path d="M136.508 21.0331L143.065 2.97014L149.621 20.9997H151.728L144.603 1.46489H141.526L134.435 20.9997L136.508 21.0331Z" stroke="#0C1E5B" stroke-width="0.5"/>
<path d="M167.977 19.5279C163.394 19.5279 159.681 15.8149 159.681 11.1988C159.681 6.61619 163.394 2.90324 167.977 2.90324V0.929688C162.324 0.929688 157.741 5.54579 157.741 11.1988C157.741 16.8853 162.324 21.468 167.977 21.468C171.489 21.468 174.6 19.7286 176.44 17.0191V10.2622H167.977V12.2023H174.5V16.3836C172.961 18.2902 170.619 19.5279 167.977 19.5279Z" stroke="#0C1E5B" stroke-width="0.5"/>
<path d="M192.721 19.5279C188.138 19.5279 184.425 15.8149 184.425 11.1988C184.425 6.61619 188.138 2.90324 192.721 2.90324C197.337 2.90324 201.05 6.61619 201.05 11.1988C201.05 15.8149 197.337 19.5279 192.721 19.5279ZM192.721 21.468C198.407 21.468 202.99 16.8853 202.99 11.1988C202.99 5.54579 198.407 0.929688 192.721 0.929688C187.068 0.929688 182.485 5.54579 182.485 11.1988C182.485 16.8853 187.068 21.468 192.721 21.468Z" stroke="#0C1E5B" stroke-width="0.5"/>
<path d="M209.058 18.123C209.861 19.461 211.099 20.4645 212.537 20.9997C213.34 21.3007 214.176 21.468 215.046 21.468C215.915 21.468 216.785 21.3007 217.554 20.9997C218.959 20.4979 220.13 19.5279 220.966 18.2568C221.736 17.1195 222.104 15.7815 222.104 14.41C222.104 12.8044 221.669 11.2657 220.665 9.96119C219.127 7.88729 216.952 7.18484 214.979 5.64614C213.473 4.50884 213.005 3.13739 212.871 1.46489H210.931C211.032 3.10394 211.433 4.70954 212.537 6.01409C215.079 9.09149 220.163 9.35909 220.163 14.41C220.163 17.2533 217.889 19.5279 215.046 19.5279C214.711 19.5279 214.377 19.4944 214.009 19.4275C212.637 19.1265 211.466 18.2902 210.731 17.1529L209.058 18.123Z" stroke="#0C1E5B" stroke-width="0.5"/>
</g>
<defs>
<filter id="filter0_d_1507_425" x="0.654297" y="0.679688" width="225.699" height="29.0718" filterUnits="userSpaceOnUse" color-interpolation-filters="sRGB">
<feFlood flood-opacity="0" result="BackgroundImageFix"/>
<feColorMatrix in="SourceAlpha" type="matrix" values="0 0 0 0 0 0 0 0 0 0 0 0 0 0 0 0 0 0 127 0" result="hardAlpha"/>
<feOffset dy="4"/>
<feGaussianBlur stdDeviation="2"/>
<feComposite in2="hardAlpha" operator="out"/>
<feColorMatrix type="matrix" values="0 0 0 0 0 0 0 0 0 0 0 0 0 0 0 0 0 0 0.25 0"/>
<feBlend mode="normal" in2="BackgroundImageFix" result="effect1_dropShadow_1507_425"/>
<feBlend mode="normal" in="SourceGraphic" in2="effect1_dropShadow_1507_425" result="shape"/>
</filter>
</defs>
</svg>
