<svg width="18" height="18" viewBox="0 0 18 18" fill="none" xmlns="http://www.w3.org/2000/svg">
<path fill-rule="evenodd" clip-rule="evenodd" d="M11.7902 17.9599C11.4561 18.0704 11.095 17.9458 10.8727 17.6686L10.3989 17.0777C9.67608 16.1763 8.32402 16.1763 7.60115 17.0777L7.12732 17.6686C6.90505 17.9458 6.54393 18.0704 6.20982 17.9599C5.42821 17.7015 4.69333 17.3375 4.02138 16.8843C3.72849 16.6868 3.59899 16.3214 3.67306 15.9716L3.83061 15.2274C4.07152 14.0897 3.22852 13.0126 2.08628 12.9987L1.33751 12.9896C0.986231 12.9853 0.665408 12.7753 0.541854 12.4402C0.260972 11.6784 0.0763677 10.8686 0.00315994 10.0261C-0.0278303 9.6696 0.17175 9.33854 0.486422 9.17941L1.15504 8.84126C2.17825 8.32374 2.47911 6.98057 1.77758 6.06195L1.31847 5.46077C1.10244 5.17789 1.0638 4.79078 1.24448 4.48323C1.6631 3.77064 2.17363 3.12056 2.75939 2.54998C3.01356 2.30239 3.39238 2.25472 3.71098 2.40632L4.38688 2.72795C5.4219 3.22045 6.64008 2.62267 6.90752 1.49105L7.08247 0.750775C7.16484 0.40223 7.43785 0.130048 7.78659 0.0823364C8.18347 0.0280344 8.58849 0 9.00001 0C9.41152 0 9.81654 0.0280344 10.2134 0.0823364C10.5622 0.130048 10.8352 0.40223 10.9176 0.750775L11.0925 1.49105C11.3599 2.62267 12.5781 3.22045 13.6131 2.72795L14.289 2.40632C14.6076 2.25472 14.9864 2.30239 15.2406 2.54998C15.8263 3.12056 16.337 3.77064 16.7555 4.48323C16.9363 4.79077 16.8976 5.17789 16.6815 5.46077L16.2224 6.06195C15.5209 6.98057 15.8217 8.32374 16.845 8.84126L17.5136 9.17941C17.8283 9.33854 18.0278 9.6696 17.9968 10.0261C17.9237 10.8686 17.7391 11.6784 17.4581 12.4402C17.3346 12.7753 17.0138 12.9853 16.6625 12.9896L15.9137 12.9987C14.7715 13.0126 13.9285 14.0897 14.1694 15.2274L14.327 15.9716C14.401 16.3214 14.2715 16.6868 13.9787 16.8843C13.3067 17.3375 12.5718 17.7015 11.7902 17.9599ZM11.7097 9.2037C11.7097 10.7287 10.4966 11.9648 9.00001 11.9648C7.50351 11.9648 6.2903 10.7287 6.2903 9.2037C6.2903 7.67874 7.50351 6.44259 9.00001 6.44259C10.4966 6.44259 11.7097 7.67874 11.7097 9.2037Z" fill="#888FA7"/>
</svg>
